<?xml version="1.0" encoding="utf-8"?>
<!-- Generator: Adobe Illustrator 24.0.1, SVG Export Plug-In . SVG Version: 6.00 Build 0)  -->
<svg version="1.1" id="Layer_1" xmlns="http://www.w3.org/2000/svg" xmlns:xlink="http://www.w3.org/1999/xlink" x="0px" y="0px"
	 viewBox="0 0 117.5 117.5" xml:space="preserve">
<style type="text/css">
	.st0{fill:#D2E3F1;}
	.st1{clip-path:url(#SVGID_2_);}
	.st2{fill:#231F20;}
	.st3{fill:#FFFFFF;}
	.st4{clip-path:url(#SVGID_4_);}
	.st5{fill:url(#SVGID_5_);}
	.st6{clip-path:url(#SVGID_7_);}
	.st7{fill:url(#SVGID_8_);}
	.st8{opacity:0.41;}
	.st9{clip-path:url(#SVGID_10_);}
	.st10{clip-path:url(#SVGID_12_);}
	.st11{clip-path:url(#SVGID_14_);}
	.st12{fill:url(#SVGID_15_);}
	.st13{clip-path:url(#SVGID_17_);}
	.st14{fill:url(#SVGID_18_);}
	.st15{clip-path:url(#SVGID_20_);}
	.st16{fill:url(#SVGID_21_);}
	.st17{clip-path:url(#SVGID_23_);}
	.st18{fill:url(#SVGID_24_);}
	.st19{clip-path:url(#SVGID_26_);}
	.st20{clip-path:url(#SVGID_28_);}
	.st21{clip-path:url(#SVGID_30_);}
	.st22{fill:url(#SVGID_31_);}
	.st23{clip-path:url(#SVGID_33_);}
	.st24{fill:url(#SVGID_34_);}
	.st25{clip-path:url(#SVGID_36_);}
	.st26{fill:url(#SVGID_37_);}
	.st27{fill:#191C1D;}
	.st28{fill:#EA5A4F;}
	.st29{fill:none;}
	.st30{fill:#1E75BB;}
</style>
<title>Asset 2</title>
<g id="Layer_2_1_">
	<g id="Layer_1-2">
		<circle class="st0" cx="58.8" cy="58.8" r="58.8"/>
		<g>
			<defs>
				<circle id="SVGID_1_" cx="58.8" cy="58.8" r="58.8"/>
			</defs>
			<clipPath id="SVGID_2_">
				<use xlink:href="#SVGID_1_"  style="overflow:visible;"/>
			</clipPath>
			<g class="st1">
				<path class="st2" d="M54.3,130.1l-5.4,17.8c0,0-20.1-22.5-33.4-30.2S7,106.7,8.6,105.4s30.3,0.6,30.3,0.6L54.3,130.1z"/>
				<path class="st2" d="M57,96.7c0.1-0.4,0.3-0.7,0.3-1.1C57.1,95.9,57,96.3,57,96.7"/>
				<path class="st2" d="M58,97.1c0.2-0.5,0.3-0.9,0.4-1.4l-2.2-0.6c-0.2,0.5-0.4,0.9-0.4,1.4L58,97.1z M56.1,95.5L56.1,95.5
					c0,0.3-0.1,0.5-0.2,0.8l2.2,0.6c0-0.3,0.1-0.5,0.2-0.8L56.1,95.5z"/>
				<path class="st3" d="M39.6,89.6c0,0-5.7,12.1,0.3,14.5s16.9,1.5,18.3-2.4s4.1-7.5,10.4-13.7S67,73.4,63.9,73.6S53.1,73,48,74.4
					s-7,1.7-7.5,2.2c-0.8,0.6-1.5,1.2-2.2,2c-0.5,0.7-1,1.4-1.5,2l-0.1,2.6l0.1,2.3C36.8,85.4,39.8,87.6,39.6,89.6"/>
				<path class="st2" d="M38.5,89.1c-0.2,0.3-3.9,8.3-2,13.1c0.5,1.4,1.6,2.5,2.9,3c4.7,1.9,12.2,1.9,16.5,0c1.5-0.5,2.6-1.6,3.3-3
					c1.4-3.8,4-7.3,10.1-13.2c2.8-2.6,3.5-6.7,1.8-10.1c-1.6-3.5-5-6.4-7.3-6.3c-0.9,0-2.2,0-3.7,0c-3.7-0.1-8.7-0.2-12.5,0.8l-4,1
					c-2.5,0.6-3.4,0.9-4,1.3c-0.9,0.6-1.8,1.4-2.4,2.3c-0.4,0.6-0.9,1.3-1.4,1.8l-0.3,0.3v0.4v2.6c0,0.1,0.1,2.4,0.1,2.4v0.6
					l0.4,0.3c1,0.8,2.4,2.2,2.3,3L38.5,89.1z M38,85.4l-0.2-2.3c0,0.1,0.1-2.5,0.1-2.5l-0.3,0.7c0.6-0.7,1.2-1.4,1.7-2.2
					c0.5-0.6,1.2-1.2,1.8-1.7c1-0.4,2.1-0.7,3.2-0.9l4-1c3.4-0.9,8.3-0.8,11.8-0.7c1.6,0,2.9,0.1,3.9,0s3.7,1.8,5.1,4.9
					c1.3,2.5,0.8,5.6-1.3,7.6c-6.4,6.3-9.1,9.9-10.7,14.1c-0.4,0.8-1.2,1.4-2.1,1.7c-3.7,1.7-10.6,1.7-14.8,0
					c-0.8-0.3-1.4-0.9-1.6-1.7c-1.2-3.2,1-9.2,2-11.3l0.1-0.2v-0.2c0.4-2.5-2.6-4.8-3.2-5.2L38,85.4z"/>
				<path class="st3" d="M69.3,63.2c0,0,12.5-3.5,15,1.2s-8.9,24.2-18,24.4s-14.4-5.1-22.9-2s-15,6-13.7-0.9c1.1-5.9,5-10.3,8-15.1
					c1.3-2.3,3-4.5,5-6.3c6.9-5.6,17.8,2.7,25.2-1.9"/>
				<path class="st2" d="M69.6,64.3L69.6,64.3c3-0.8,12-2.5,13.7,0.7c0.7,1.3-0.3,5.6-3.4,10.9c-3.5,5.8-9,11.7-13.6,11.8
					c-3.2-0.1-6.4-0.6-9.5-1.6c-4.3-1.2-8.5-2.3-13.8-0.4l-2.1,0.8c-4.3,1.6-8.8,3.2-9.9,2.2c-0.4-0.3-0.5-1.2-0.2-2.6
					c0.8-4.4,3.2-7.9,5.8-11.7c0.7-1,1.4-2,2.1-3.1l0.2-0.3c1.2-2.1,2.7-4,4.5-5.7c3.2-2.6,7.4-1.8,12-1s9.2,1.6,13.2-0.8l-1.2-1.9
					c-3.2,2-7.2,1.3-11.5,0.5c-4.8-0.9-9.8-1.8-13.8,1.5c-2,1.8-3.7,3.9-5,6.2l-0.2,0.3c-0.7,1-1.3,2-2,3c-2.6,3.8-5.3,7.7-6.2,12.6
					c-0.4,2.3-0.1,3.8,1,4.8c2.2,1.8,6.4,0.3,12.2-1.9l2.1-0.7c4.7-1.7,8.3-0.7,12.5,0.4c3.3,1.1,6.6,1.6,10.1,1.7
					c5.8-0.1,11.8-6.7,15.5-12.9c2.7-4.5,5-10.3,3.5-13.1c-2.8-5.4-15-2.2-16.3-1.8L69.6,64.3z"/>
				<path class="st2" d="M68.7,55.8l-0.8,7.7c0-0.4,0.2-0.7,0.6-0.9c-0.1,0-6.7,3.9-9.7-0.1c0.1,0.2,0.2,0.4,0.2,0.6l-0.6-7
					l-1.1,0.1l-1.1,0.1l0.6,7c0,0.2,0.1,0.4,0.2,0.6c4.2,5.7,12.3,0.9,12.7,0.7c0.3-0.2,0.5-0.5,0.6-0.9l0.8-7.6L69.8,56L68.7,55.8z
					"/>
				<path class="st2" d="M41.9,48.2c-0.9-1.1-1.1-2.5-1.4-5.2C40,36.7,44.6,23.9,49,19.7s18.2-5,30.8,2.9l-0.2-0.2
					c0,0.1,5.6,6.5,6.1,14.3l0.1,1.4l1.4-0.4c2.4-0.7,3.7-0.6,4.1-0.2s0.3,1,0.2,1.6c-0.6,4-5,8.9-7.6,9.4c-0.6,0.1-0.8-0.1-0.9-0.3
					l-0.7-1.1l-1,0.8c-8.8,6.8-13.2,9.5-14.2,9.6c-0.5,0.1-1,0.2-1.5,0.3c-2.2,0.5-4.4,1-13.2-3.5L51,53.7l-1.2-0.6l-0.4,1.4
					c0-0.1,0.1-0.2,0.1-0.2c-0.4,0.3-2.9,0.1-5.9-1.1c-2.3-0.9-3.2-1.9-3.3-2.3c0-0.1,0-0.3,0-0.4c0,0,0.2-0.2,0.9-0.3l2-0.3
					L41.9,48.2z M38.1,51.4c0.7,2.9,7.3,5.2,10.5,5.2c2.1,0,2.8-0.8,3-1.6L50,55.8l1.2,0.6c9.6,4.9,12.2,4.3,14.8,3.6l1.3-0.3
					c2.5-0.4,9.7-5.7,15.4-10.1L81,49.4c0.7,1.1,2,1.7,3.3,1.3C88.1,50,93,44,93.7,39.4c0.4-1.3,0-2.7-1-3.7
					c-1.2-1.1-3.3-1.2-6.3-0.2l1.5,1c-0.6-8.5-6.4-15.3-6.7-15.6l-0.1-0.1L81,20.7c-14-8.9-28.7-7.2-33.6-2.6s-9.8,18.2-9.1,25.2
					c0.3,3.1,0.6,4.8,1.8,6.4l0.7-1.8c-1,0.1-1.9,0.5-2.5,1.3C38,49.8,37.8,50.6,38.1,51.4"/>
				<g>
					<defs>
						<path id="SVGID_3_" d="M72.5,31.3c-3,0.5-4.8,4.6-4.1,9.2s3.7,8,6.6,7.6s4.8-4.6,4.1-9.2c-0.7-4.3-3.3-7.6-6.1-7.6
							C72.8,31.3,72.7,31.3,72.5,31.3"/>
					</defs>
					<clipPath id="SVGID_4_">
						<use xlink:href="#SVGID_3_"  style="overflow:visible;"/>
					</clipPath>
					<g class="st4">
						
							<linearGradient id="SVGID_5_" gradientUnits="userSpaceOnUse" x1="-1092.4844" y1="-252.7195" x2="-1091.4744" y2="-252.7195" gradientTransform="matrix(-10.6769 1.6262 1.6262 10.6769 -11172.4375 4513.605)">
							<stop  offset="0" style="stop-color:#FFFFFF"/>
							<stop  offset="1.000000e-02" style="stop-color:#FFFFFF"/>
							<stop  offset="1" style="stop-color:#C3C2C3"/>
						</linearGradient>
						<polygon class="st5" points="65.1,31.6 79.5,29.4 82.4,48.1 68,50.3 						"/>
					</g>
				</g>
				<path class="st2" d="M67.2,40.7c0.3,2.9,1.8,5.6,4,7.4c2.1,1.8,5.3,1.5,7-0.6c0.1-0.2,0.2-0.3,0.3-0.5c1.6-2.5,2.2-5.4,1.6-8.3
					c-0.3-2.9-1.8-5.6-4-7.4c-1.1-0.9-2.6-1.3-4-1.1C68.6,30.7,66.4,35.3,67.2,40.7 M72.7,32.4c0.8-0.1,1.6,0.2,2.2,0.7
					c1.7,1.5,2.8,3.6,3.1,5.9c0.4,2.3,0,4.6-1.2,6.6c-0.8,1.3-2.5,1.7-3.8,0.9c-0.1-0.1-0.3-0.2-0.4-0.3c-1.7-1.5-2.8-3.6-3.1-5.9
					C68.9,36.4,70.4,32.8,72.7,32.4"/>
				<path class="st2" d="M71.2,39.9c0.4,2.7,2,4.7,3.5,4.4s2.4-2.6,2-5.3s-2-4.7-3.5-4.4S70.8,37.2,71.2,39.9"/>
				<path class="st2" d="M70.1,40.1c0.2,1.8,1.1,3.5,2.5,4.8c1.2,1,3.1,0.9,4.1-0.4c0.1-0.1,0.1-0.2,0.2-0.3c1-1.6,1.4-3.5,1-5.3
					c-0.2-1.8-1.1-3.5-2.5-4.8c-0.6-0.5-1.5-0.7-2.3-0.6C70.9,33.9,69.6,36.7,70.1,40.1 M73.4,35.8c0.2,0,0.4,0.1,0.6,0.2
					c0.9,0.9,1.5,2,1.6,3.2c0.3,1.2,0.1,2.5-0.6,3.6c-0.1,0.2-0.3,0.3-0.5,0.4c-0.2,0-0.4-0.1-0.5-0.2c-0.9-0.9-1.5-2-1.6-3.2
					C72.1,37.5,72.8,35.9,73.4,35.8"/>
				<path class="st3" d="M73.1,38c0.3,2,1.3,3.4,2.2,3.3s1.5-1.8,1.2-3.8s-1.3-3.4-2.2-3.3S72.8,36,73.1,38"/>
				<path class="st2" d="M72,38.2c0.1,1.5,0.8,2.8,1.9,3.8c0.5,0.4,1.1,0.5,1.6,0.5c0.6-0.1,1.1-0.4,1.4-0.9c0.7-1.3,1-2.8,0.7-4.2
					c-0.1-1.5-0.8-2.8-1.9-3.8c-0.5-0.4-1.1-0.5-1.6-0.4C72.4,33.4,71.6,35.5,72,38.2 M74.4,35.4c0,0-0.1,0-0.1,0
					c0.6,0.6,1,1.4,1.1,2.3c0.2,0.9,0.1,1.8-0.3,2.5c0,0,0.1,0,0.1,0h0.1c-0.6-0.6-1-1.4-1-2.3c-0.2-0.9-0.1-1.8,0.3-2.5L74.4,35.4"
					/>
				<path class="st3" d="M72.5,43.2c0.1,0.8,0.5,1.4,0.9,1.4s0.6-0.8,0.5-1.6s-0.5-1.4-0.9-1.4S72.4,42.4,72.5,43.2"/>
				<path class="st2" d="M71.3,43.4c0.1,0.8,0.5,1.5,1.1,2c0.7,0.5,1.7,0.4,2.2-0.3c0,0,0,0,0,0c0.4-0.7,0.6-1.5,0.4-2.3
					c-0.1-0.8-0.5-1.5-1.1-2c-0.3-0.3-0.8-0.4-1.2-0.3C71.7,40.6,71.1,41.9,71.3,43.4 M73.1,42.8c-0.2,0-0.4,0-0.6-0.1
					c0.1,0.2,0.2,0.4,0.2,0.6c0,0.2,0,0.4,0,0.6c0.1-0.2,0.3-0.3,0.5-0.3c0.2,0,0.4,0,0.6,0.1c-0.1-0.2-0.2-0.4-0.2-0.6
					c0-0.2,0-0.4,0-0.6C73.5,42.6,73.3,42.7,73.1,42.8"/>
				<g>
					<defs>
						<path id="SVGID_6_" d="M50.8,31.8c-3,0.5-4.8,4.6-4.1,9.2s3.7,8,6.6,7.6s4.8-4.6,4.1-9.2c-0.7-4.4-3.3-7.6-6.1-7.6
							C51.2,31.7,51,31.7,50.8,31.8"/>
					</defs>
					<clipPath id="SVGID_7_">
						<use xlink:href="#SVGID_6_"  style="overflow:visible;"/>
					</clipPath>
					<g class="st6">
						
							<linearGradient id="SVGID_8_" gradientUnits="userSpaceOnUse" x1="-1092.4792" y1="-253.2322" x2="-1091.4692" y2="-253.2322" gradientTransform="matrix(-10.6676 1.6209 1.6209 10.6676 -11186.1738 4511.7495)">
							<stop  offset="0" style="stop-color:#FFFFFF"/>
							<stop  offset="1.000000e-02" style="stop-color:#FFFFFF"/>
							<stop  offset="1" style="stop-color:#C3C2C3"/>
						</linearGradient>
						<polygon class="st7" points="57.9,29.9 43.5,32.1 46.3,50.8 60.8,48.6 						"/>
					</g>
				</g>
				<path class="st2" d="M45.6,41.1c0.3,2.9,1.8,5.6,4,7.4c1.1,0.9,2.6,1.3,4,1.1c1.4-0.2,2.6-1,3.4-2.2c1.6-2.5,2.2-5.4,1.6-8.3
					c-0.8-5.3-4.3-9.1-8-8.5c-1.4,0.2-2.6,1-3.4,2.2C45.6,35.3,45,38.3,45.6,41.1 M51,32.9c2.3-0.4,4.8,2.7,5.3,6.6
					c0.4,2.3,0,4.6-1.2,6.6c-0.8,1.3-2.5,1.7-3.8,1c-0.2-0.1-0.3-0.2-0.4-0.3c-1.7-1.5-2.8-3.6-3.1-5.9c-0.4-2.3,0-4.6,1.2-6.6
					C49.5,33.5,50.2,33.1,51,32.9"/>
				<path class="st2" d="M49.6,40.4c0.4,2.7,2,4.7,3.5,4.4s2.4-2.6,2-5.3s-2-4.7-3.5-4.4S49.2,37.7,49.6,40.4"/>
				<path class="st2" d="M48.5,40.6c0.5,3.4,2.6,5.7,4.8,5.4s3.5-3.2,3-6.6c-0.2-1.8-1.1-3.5-2.5-4.8c-1.3-1-3.2-0.8-4.2,0.5
					c0,0-0.1,0.1-0.1,0.1C48.5,36.9,48.1,38.8,48.5,40.6 M51.8,36.3c0.2,0,0.4,0.1,0.6,0.2c0.9,0.8,1.5,2,1.6,3.2
					c0.3,2.2-0.4,3.9-1.1,4s-1.8-1.2-2.2-3.5c-0.3-1.2-0.1-2.5,0.5-3.6C51.4,36.5,51.6,36.4,51.8,36.3"/>
				<path class="st3" d="M51.5,38.5c0.3,2,1.3,3.4,2.2,3.3s1.5-1.8,1.2-3.8s-1.3-3.4-2.2-3.3S51.2,36.5,51.5,38.5"/>
				<path class="st2" d="M50.3,38.7c0.1,1.5,0.8,2.8,1.9,3.8c0.5,0.4,1.1,0.5,1.6,0.5c1.6-0.3,2.5-2.4,2.1-5.1s-1.9-4.5-3.5-4.2
					c-0.6,0.1-1.1,0.4-1.5,0.9C50.3,35.8,50,37.2,50.3,38.7 M52.8,35.8h-0.1c0.6,0.6,1,1.4,1,2.3c0.2,0.9,0.1,1.8-0.3,2.5
					c0,0,0,0,0.1,0s0.1,0,0.1,0c-0.6-0.6-1-1.5-1-2.3c-0.2-0.9-0.1-1.8,0.3-2.5C52.9,35.8,52.9,35.8,52.8,35.8"/>
				<path class="st3" d="M50.8,43.7c0.1,0.8,0.5,1.5,0.9,1.4s0.6-0.8,0.5-1.6s-0.6-1.4-1-1.4S50.7,42.9,50.8,43.7"/>
				<path class="st2" d="M49.7,43.9c0.1,0.8,0.5,1.5,1.1,2c0.3,0.3,0.8,0.4,1.2,0.3c1.1-0.2,1.7-1.4,1.4-2.9c-0.1-0.8-0.5-1.5-1.1-2
					C52,41,51.6,40.9,51.2,41C50.1,41.2,49.5,42.4,49.7,43.9 M51.5,43.2c-0.2,0-0.4,0-0.6-0.1c0.2,0.3,0.3,0.8,0.2,1.2
					c0.1-0.2,0.3-0.3,0.5-0.3c0.2,0,0.4,0,0.6,0.1c-0.1-0.2-0.2-0.4-0.2-0.6c0-0.2,0-0.4,0-0.6C51.9,43.1,51.7,43.2,51.5,43.2"/>
				<path class="st2" d="M55.8,53.2c0.2-1.3,1.2-2.3,2.5-2.7C58.2,50.6,55.9,50.1,55.8,53.2"/>
				<path class="st2" d="M56.9,53.5c0.2-0.8,0.8-1.7,1.5-1.8l0.1-2.3c-0.9-0.2-1.7,0-2.5,0.5c-0.9,0.8-1.4,1.9-1.4,3.1L56.9,53.5z
					 M58.1,49.4c-1.9,0.2-3.1,2-3.5,3.5l2.3,0.3c0-0.5,0.1-1,0.5-1.4c0.2-0.1,0.4-0.2,0.6-0.2L58.1,49.4z"/>
				<path class="st2" d="M69.9,53.3c-0.6-1-1.9-2-3.1-1.8C66.8,51.5,68.9,50.4,69.9,53.3"/>
				<path class="st2" d="M70.9,52.8c-0.8-1.4-2.6-2.7-4.3-2.3l0.8,2.1c0.2-0.1,0.4-0.1,0.7,0c0.4,0.3,0.7,0.7,0.9,1.2L70.9,52.8z
					 M67,52.7c0.6-0.1,1.5,0.5,1.9,1.3L71,53c-0.3-1.1-1.1-2.1-2.2-2.6c-0.8-0.3-1.7-0.2-2.5,0.2L67,52.7z"/>
				<path class="st2" d="M68.7,52c0,0-4.5,7.3-11.8-0.7C56.9,51.3,63.9,61.9,68.7,52"/>
				<path class="st2" d="M67.7,51.4L67.7,51.4c-0.9,1.3-2.3,2.2-3.8,2.5c-1.9,0.2-4-1-6.2-3.3L55.9,52c0.2,0.2,3.9,5.7,8.2,5.4
					c2.3-0.2,4.2-1.8,5.6-4.9L67.7,51.4z M56,52.1c2.7,3,5.4,4.3,8.1,4.1c2.3-0.3,4.3-1.6,5.6-3.6l-2-1.1c-1.1,2.3-2.3,3.5-3.7,3.6
					c-2.5,0.2-5.2-3.1-6.1-4.4L56,52.1z"/>
				<g class="st8">
					<g>
						<defs>
							<rect id="SVGID_9_" x="83.7" y="38" width="7.1" height="9.6"/>
						</defs>
						<clipPath id="SVGID_10_">
							<use xlink:href="#SVGID_9_"  style="overflow:visible;"/>
						</clipPath>
						<g class="st9">
							<path class="st2" d="M84.6,46.7c0,0,7-6.7,4.5-7.5S87.4,44.3,84.6,46.7"/>
							<path class="st2" d="M85.4,47.6c2.2-2.1,5.8-6,5.3-8.1c-0.1-0.7-0.6-1.2-1.3-1.4c-0.6-0.2-1.3-0.2-1.8,0.1
								c-1.1,0.6-1.4,1.9-1.8,3.5s-0.8,3.2-1.9,4.1L85.4,47.6z M88.7,40.3L88.7,40.3c-0.1-0.1-0.2-0.2-0.2-0.3c0,0.8-2.2,3.6-4.7,6
								l-0.1,0v0.1l1.6,1.6c1.6-1.4,2.1-3.6,2.6-5.3C88.1,41.6,88.4,40.9,88.7,40.3L88.7,40.3L88.7,40.3"/>
						</g>
					</g>
				</g>
				<path class="st2" d="M64.4,48.3L64.4,48.3c-0.6-0.2-1.4-0.6-1.5-0.9c0-0.1,0.1-0.4,0.4-0.7l-1.7-1.5c-0.8,0.7-1.2,1.9-0.9,2.9
					c0.5,1.7,2.7,2.3,3.1,2.5L64.4,48.3z"/>
				<g class="st8">
					<g>
						<defs>
							<rect id="SVGID_11_" x="41" y="49.3" width="5.1" height="4.4"/>
						</defs>
						<clipPath id="SVGID_12_">
							<use xlink:href="#SVGID_11_"  style="overflow:visible;"/>
						</clipPath>
						<g class="st10">
							<path class="st2" d="M46.1,52.6c0,0-5.2,0-3.6-2.7"/>
							<path class="st2" d="M46.1,51.5L46.1,51.5c-1,0.1-2-0.2-2.8-0.6l0,0c0-0.1,0.1-0.2,0.1-0.3l-2-1.2c-0.6,0.8-0.6,1.8-0.2,2.6
								c0.9,1.7,3.9,1.8,4.8,1.8L46.1,51.5z"/>
						</g>
					</g>
				</g>
				<path class="st2" d="M52,13.6l0.1,0.2c0.4,1.2,1.9,5.4,5.7,7.5c2,1.1,4.2,2,6.4,2.7c0.7,0.2,1.4,0.4,2.2,0.6
					c2.1,0.5,4.2,1.2,6.1,2.2c1.7,1,3.3,2.1,4.8,3.3l1.4-1.8c-0.4-0.4-0.9-0.8-1.2-1.3c-0.5-0.7-1.2-1.3-1.8-1.8
					c-2.4-1.8-5.1-2.5-7.7-3.1c-0.9-0.2-1.8-0.5-2.7-0.7c-3.1-0.8-5.9-2.4-8.3-4.5c-1.2-1.1-2.1-2.5-2.7-4.1L52,13.6z M55.2,18.6
					c2.6,2.4,5.8,4.1,9.2,5.1c0.9,0.3,1.9,0.5,2.8,0.8c2.5,0.6,4.9,1.2,6.9,2.7c0.5,0.5,1,1,1.5,1.5c0.5,0.5,1,1,1.5,1.5l1.4-1.8
					c-1.6-1.3-3.3-2.5-5.1-3.5c-2.1-1.1-4.3-1.9-6.6-2.5c-0.7-0.2-1.4-0.4-2.1-0.6c-2.1-0.7-4.1-1.5-6-2.6c-3.2-1.7-4.4-5.4-4.6-6.1
					L54.2,13L52,13.7C52.7,15.5,53.8,17.2,55.2,18.6"/>
				<path class="st2" d="M56.3,14.5c0.1,0.2,3.2,5.2,12.6,5.9c8.2,0.6,16.2,7.5,16.7,12.5l2.3-0.1c0-0.1-0.4-10.7-12.5-14.3
					c-3.2-1-6.5-1.6-9.9-2c-3.3-0.4-4.7-0.6-7.5-3.4L56.3,14.5z M74.9,20.6c10.4,3.1,10.8,11.8,10.8,12.1l2.3-0.2
					c-0.6-6-9.2-13.8-18.8-14.5c-8.2-0.6-10.7-4.6-10.8-4.8l-0.1-0.1l-0.1-0.1l-1.6,1.6c3.3,3.3,5.4,3.6,8.8,4
					C68.6,19.1,71.8,19.7,74.9,20.6"/>
				<path class="st2" d="M50.2,16.1c-0.2,0.1-6.2,3.2-7.9,12.6l-0.1,0.8c-1.6,8.2-2.4,12.7-6,17.5l2,1.1c2.2-5.2,3.7-10.6,4.3-16.2
					c0.7-7,3.8-9.6,7.9-12.9l1.2-1L50.2,16.1z M40.1,31.7c-0.6,5.3-2,10.5-4.1,15.5l2,1.2c3.8-5.2,4.7-9.9,6.3-18.4l0.1-0.8
					c1.6-8.2,6.5-10.9,6.8-11L50,16.3l-1.2,0.9C44.8,20.6,40.8,23.7,40.1,31.7"/>
				<path class="st2" d="M78.5,13.8C78.1,13.4,68,3.4,56,8.4l-0.6,0.2l-0.1,0.6c-0.3,2.1,0.2,4.2,1.5,5.9c1.3,1.5,3.3,2.2,6,2
					c2.2,0,4.3-0.8,6-2.2c1.6-1.2,2.6-1.9,8.4,0.6L78.5,13.8z M62.7,15c-1.9,0.1-3.3-0.3-4.2-1.3c-0.8-1.2-1.2-2.6-1-4l-0.7,0.9
					c10.6-4.4,20,4.8,20.1,4.9l-0.2-0.2l1.4-1.6c-6.5-2.8-8.4-1.9-10.7-0.3C66.1,14.4,64.4,15,62.7,15"/>
				<path class="st2" d="M37.8,106.3C24.7,112.3,9,120,8.4,122.4c-0.1,0.4,0,0.8,0.2,1.2c1.1,1.5,2.2,0.7,3.2-0.1
					c2.2-1.6,7.9-5.8,27.1-13.6l-0.9-2.1c-19.5,7.9-25.4,12.3-27.6,13.9c-0.3,0.2-0.6,0.5-0.7,0.5c0.3-0.1,0.6,0,0.8,0.2l-0.1-0.1
					c0.2,0.3,0.3,0.6,0.1,0.9c1.1-1.6,15.2-8.8,28.2-14.8L37.8,106.3z"/>
				<path class="st2" d="M38,106.6l5.5,8.7l2-1c-3.1-9.3-4.7-9.7-5.2-9.8c-0.5-0.1-1,0-1.4,0.4l1.6,1.6c-0.2,0.2-0.6,0.3-0.9,0.1
					c0.7,0.5,2.5,4.8,3.7,8.4l2-1l-5.5-8.7L38,106.6z"/>
				<path class="st2" d="M70.3,68.2c-2,4.5-7.8,10.7-7.9,10.8l1.2-0.3c-10-3.1-27.7,2.8-28.4,3l0.6,2.2c2.9-0.7,11.3,1.6,14.3,2.5
					l3,1l0.7-2.2l-3-0.9c-1.2-0.4-11.5-3.5-15.5-2.6l0.6,2.2c0.2-0.1,17.7-5.8,27-3l0.7,0.2l0.5-0.5c0.3-0.3,6.1-6.6,8.3-11.4
					L70.3,68.2z"/>
				<path class="st2" d="M41.2,81.3c5.5-6.9,5.2-7.9,5-8.4L44,73.6c0-0.1,0-0.2,0-0.3c-0.2,0.8-2.5,4-4.6,6.6L41.2,81.3z"/>
				<path class="st3" d="M56.9,61.7c0,0-3.8,4.5-2.5,7.7l7.7-4.2c0,0-3.5-0.3-4.2-3.5"/>
				<path class="st2" d="M56.6,60.4c-0.4,0.5-4.7,5.6-3.2,9.4l0.5,1.2l1.1-0.6l7.7-4.2l3.3-1.8l-3.8-0.3c-0.1,0-2.7-0.3-3.1-2.6
					l-2.2,0.5c0.6,2.4,2.7,4.2,5.2,4.4l-0.4-2.1l-7.7,4.2l1.6,0.6c-0.8-2.1,1.5-5.5,2.4-6.5L56.6,60.4z"/>
				<path class="st3" d="M63,65.2l4.5,6.1c0,0,2.9-6.1,1.6-9.9C67.6,63.3,65.4,64.7,63,65.2"/>
				<path class="st2" d="M62.1,65.9l4.5,6.1l1.1,1.6l0.8-1.7c0.1-0.3,3-6.5,1.7-10.8l-0.7-2.2l-1.3,1.9c-1.4,1.7-3.3,2.9-5.4,3.4
					l-1.7,0.4L62.1,65.9z M68,61.7c0.9,2.8-0.8,7.5-1.6,9.1l2-0.2L64,64.5l-0.7,1.8c2.7-0.6,5.1-2.1,6.8-4.3L68,61.7z"/>
				<path class="st2" d="M60.7,65.6L60.7,65.6c0,0.1-4.7,9.1-9.9,12.7l1.3,1.9c5.6-4,10.4-13.1,10.6-13.5L60.7,65.6z"/>
				<path class="st2" d="M48.4,84.9c-0.3,0.3-6.8,8.3-2.1,21.3l2.2-0.8c-4.2-11.7,1.7-19,1.7-19L48.4,84.9z"/>
				<path class="st2" d="M11.7,126.8L11.7,126.8c0.2,0.2,21.3,20.3,28.1,47.4l0.9,3.7l1.2-3.6l2-5.4l0.1-0.4l-0.1-0.4
					c-0.1-0.2-8.4-26.1-30.8-43.1L11.7,126.8z M41.8,168.1l-1.9,5.4l2.2,0.1c-7-27.8-28.6-48.3-28.8-48.5l-1.5,1.8
					c21.9,16.5,29.9,41.7,30,42L41.8,168.1z"/>
				<path class="st2" d="M57.4,105c-0.3,0-0.5,0-0.7-0.2c0.8,0.9,2.1,7.9,2.1,9.1c-0.1,1.7-2.8,6-4.3,6.3c-1.2,0.3-1.4-0.1-1.5-0.2
					c-0.6-1.3,0.8-5.1,2.2-6.2c1-0.8,1.5-2.2,1.3-3.5c-0.5-2.2-2.1-4-4.2-4.8c-0.1,0-0.1-0.1-0.2-0.1c0.1,0.1,0.2,0.3,0.2,0.5
					c0,0.2-0.1,0.4-0.2,0.5C52.7,106,55.3,105.3,57.4,105 M51.4,107.5c1.4,0.5,2.4,1.7,2.8,3.1c0.1,0.5-0.1,1.1-0.5,1.4
					c-1.7,1.4-4,6.3-2.7,9c0.4,0.8,1.4,2,4,1.5s6-5.9,6.1-8.4c0-0.6-1.2-9.4-2.8-10.8c-0.3-0.3-0.8-0.4-1.2-0.4
					c-6.7,1-6.9,2.3-7,2.9C50,106.1,50.1,106.9,51.4,107.5"/>
				<path class="st2" d="M36.8,106l-25.3-1h-0.1h-0.1c-1.7,0.3-2.5,0.9-2.6,1.8c0,1.2,1.3,1.6,1.9,1.7c2.6,0.7,21.2,0.7,23.3,0.7
					v-2.3c-8.2,0-21-0.2-22.8-0.6c-0.2,0-0.3-0.1-0.5-0.2c0.2,0.2,0.3,0.4,0.4,0.7c0,0.3-0.1,0.5-0.3,0.7c0.3-0.2,0.7-0.3,1-0.3
					h-0.3l25.3,1L36.8,106z"/>
				<path class="st2" d="M45.2,91.1c-0.2,0.6-0.7,0.9-1.1,0.8c-0.4-0.3-0.6-0.8-0.4-1.2c0.2-0.5,0.7-0.9,1.1-0.8
					C45.3,90.1,45.4,90.7,45.2,91.1"/>
				<path class="st2" d="M44.1,90.8C44.1,90.8,44.1,90.8,44.1,90.8c0.1,0,0.3,0,0.4,0.1c0.1,0,0.3,0.2,0.3,0.3c0,0,0-0.1,0-0.1
					c0,0,0-0.1,0-0.1c-0.1,0.1-0.3,0.1-0.4,0c-0.2,0-0.3-0.2-0.3-0.3C44.1,90.7,44.1,90.7,44.1,90.8 M45.2,88.8
					c-1.1-0.6-2.4-0.2-3,0.9c-0.6,1.1-0.2,2.4,0.9,3c1.1,0.6,2.4,0.2,3-0.9c0.1-0.1,0.1-0.2,0.1-0.3C46.7,90.5,46.3,89.3,45.2,88.8
					C45.3,88.8,45.2,88.8,45.2,88.8"/>
				<path class="st2" d="M44.2,98.2c-0.2,0.5-0.7,0.9-1.1,0.7c-0.4-0.3-0.6-0.8-0.4-1.2c0.2-0.6,0.7-0.9,1.1-0.7
					S44.4,97.6,44.2,98.2"/>
				<path class="st2" d="M43.2,97.8C43.2,97.8,43.2,97.9,43.2,97.8c0.1,0,0.3,0,0.4,0.1c0.2,0,0.3,0.2,0.3,0.3c0,0,0-0.1,0-0.1V98
					c-0.1,0.1-0.3,0.1-0.4,0c-0.2,0-0.3-0.2-0.3-0.3C43.2,97.7,43.2,97.8,43.2,97.8 M44.3,95.8c-1.1-0.3-2.2,0.3-2.5,1.4
					c0,0,0,0.1,0,0.1c-0.2,0.6-0.2,1.2,0,1.8c0.2,0.4,0.6,0.8,1,0.9c1.1,0.3,2.2-0.3,2.5-1.3c0,0,0-0.1,0-0.1c0.5-1,0-2.2-1-2.7
					C44.3,95.8,44.3,95.8,44.3,95.8"/>
				<path class="st2" d="M51.9,75.8c-0.2,0.6-0.7,0.9-1.1,0.8c-0.4-0.3-0.6-0.8-0.4-1.2c0.2-0.6,0.7-0.9,1.1-0.7
					S52.1,75.2,51.9,75.8"/>
				<path class="st2" d="M50.8,75.4C50.9,75.4,50.9,75.5,50.8,75.4c0.1,0,0.3,0,0.4,0.1c0.1,0,0.3,0.2,0.3,0.3c0,0,0-0.1,0-0.1
					c0,0,0-0.1,0-0.1c-0.1,0.1-0.3,0.1-0.4,0c-0.1,0-0.3-0.2-0.3-0.3C50.9,75.3,50.9,75.4,50.8,75.4 M52,73.5
					c-0.4-0.2-0.9-0.1-1.3,0.1c-0.6,0.3-1,0.8-1.2,1.4C49.3,76,50,77,51,77.2s2.1-0.5,2.3-1.5C53.4,74.7,52.9,73.8,52,73.5"/>
				<path class="st2" d="M57,96.7c0.1-0.4,0.3-0.7,0.3-1.1C57.1,95.9,57,96.3,57,96.7 M57.3,100.1C57,99,56.9,97.8,57,96.7
					c-0.7,1.5-2.6,4.1-8.6,3.8c-6.4-0.3-9.3,0.1-11.5-1.2c0,1.5,0.2,2.9,0.7,4.3c0.6,1,1.1,1.9,1.4,2.4c0,0,0.4,1.5-0.6,1.3
					S9.5,119,8.4,120.5s-1.7,4.5,4.5,8.9s19.8,27.3,22.4,33.3c1.9,4.6,3.5,9.3,4.9,14.1l7.9-22.2L24,126.9c0,0-2.1-1.7-0.2-1.5
					s27.1,0.4,34.1-3.4S62.6,107.1,57.3,100.1"/>
				<path class="st3" d="M39.6,89.6c0,0-5.7,12.1,0.3,14.5s16.9,1.5,18.3-2.4s4.1-7.5,10.4-13.7S67,73.4,63.9,73.6S53.1,73,48,74.4
					s-7,1.7-7.5,2.2c-0.8,0.6-1.5,1.2-2.2,2c-0.5,0.7-1,1.4-1.5,2l-0.1,2.6l0.1,2.3C36.8,85.4,39.8,87.6,39.6,89.6"/>
				<path class="st2" d="M39.1,89.4c-0.2,0.3-3.8,8.1-2,12.6c0.4,1.2,1.4,2.2,2.6,2.7c4.6,1.8,11.9,1.8,16.1,0
					c1.3-0.5,2.4-1.4,3-2.7c1.4-3.9,4.1-7.4,10.2-13.5c2.6-2.4,3.3-6.3,1.7-9.5c-1.4-3.2-4.6-6.1-6.7-6c-0.9,0.1-2.2,0-3.7,0
					c-3.6-0.1-8.6-0.2-12.3,0.8l-4,1c-2.4,0.6-3.3,0.8-3.8,1.2c-0.9,0.6-1.7,1.4-2.3,2.2c-0.4,0.7-0.9,1.3-1.5,1.9l-0.1,0.2v0.2v2.6
					l0.1,2.4v0.3l0.2,0.2C37.3,86.5,39.2,88.2,39.1,89.4L39.1,89.4z M37.4,85.5l-0.1-2.3c0,0.1,0.1-2.5,0.1-2.5L37.2,81
					c0.6-0.7,1.1-1.4,1.6-2.1c0.6-0.7,1.3-1.3,2-1.9c1.1-0.5,2.2-0.8,3.3-1l4-1c3.5-1,8.4-0.8,12-0.8c1.5,0,2.9,0.1,3.8,0
					c1.3-0.1,4.2,2,5.6,5.3c1.4,2.8,0.8,6.1-1.4,8.2c-6.3,6.2-9,9.8-10.5,13.9c-0.5,1-1.3,1.7-2.4,2.1c-3.8,1.7-11,1.7-15.2,0
					c-0.9-0.3-1.7-1.1-2-2c-1.6-4,2-11.7,2-11.7v-0.1v-0.2c0.3-2.2-2.6-4.4-3-4.7L37.4,85.5z"/>
				<path class="st3" d="M69.3,63.2c0,0,12.5-3.5,15,1.2s-8.9,24.2-18,24.4s-14.4-5.1-22.9-2s-15,6-13.7-0.9c1.1-5.9,5-10.3,8-15.1
					c1.3-2.3,3-4.5,5-6.3c6.9-5.6,17.8,2.7,25.2-1.9"/>
				<path class="st2" d="M69.5,63.8L69.5,63.8c3.4-1,12.5-2.6,14.3,0.9c0.9,1.8-0.5,6.5-3.4,11.5c-3.3,5.5-9,12-14.1,12.1
					c-3.3,0-6.5-0.6-9.6-1.6c-4.3-1.2-8.3-2.3-13.5-0.4L41.1,87c-4.9,1.8-9.1,3.3-10.5,2.2c-0.6-0.5-0.7-1.5-0.4-3.1
					c0.8-4.5,3.4-8.2,5.9-11.9c0.7-1,1.4-2,2.1-3l0.2-0.3c1.2-2.1,2.8-4.1,4.6-5.8c3.4-2.8,7.8-2,12.4-1.1c4.4,0.8,9,1.6,12.7-0.7
					l-0.6-1c-3.4,2.1-7.5,1.4-11.9,0.6c-4.7-0.8-9.6-1.7-13.4,1.4c-1.9,1.8-3.6,3.8-4.9,6.1l-0.2,0.4c-0.7,1-1.3,2-2,3
					c-2.6,3.7-5.2,7.6-6.1,12.3c-0.4,2.1-0.1,3.4,0.8,4.2c1.9,1.6,6,0.1,11.6-2l2.1-0.8c4.9-1.8,8.5-0.8,12.8,0.4
					c3.2,1,6.6,1.6,9.9,1.6c5.6-0.1,11.6-6.8,15-12.6c2.5-4.1,4.9-9.9,3.5-12.6c-2.7-5.1-15.1-1.7-15.7-1.5L69.5,63.8z"/>
				<g>
					<defs>
						<path id="SVGID_13_" d="M57.2,56.1l0.6,7C61.5,68,69,63.6,69,63.6l0.8-7.6L57.2,56.1z"/>
					</defs>
					<clipPath id="SVGID_14_">
						<use xlink:href="#SVGID_13_"  style="overflow:visible;"/>
					</clipPath>
					<g class="st11">
						
							<linearGradient id="SVGID_15_" gradientUnits="userSpaceOnUse" x1="-1188.657" y1="-206.0831" x2="-1187.647" y2="-206.0831" gradientTransform="matrix(-4.309 0.3081 0.3081 4.309 -4994.3521 1316.218)">
							<stop  offset="0" style="stop-color:#FEFEFE"/>
							<stop  offset="1.000000e-02" style="stop-color:#FEFEFE"/>
							<stop  offset="1" style="stop-color:#FFE5E0"/>
						</linearGradient>
						<polygon class="st12" points="69.8,55 56.4,56 57.3,68.9 70.7,68 						"/>
					</g>
				</g>
				<path class="st2" d="M69.3,55.9l-0.8,7.7c0-0.2,0.1-0.3,0.3-0.4c-0.1,0-7.1,4.1-10.4-0.3c0.1,0.1,0.1,0.2,0.1,0.3l-0.6-7
					l-0.6,0.1h-0.6l0.6,7c0,0.1,0,0.2,0.1,0.3c3.9,5.2,11.9,0.6,11.9,0.6c0.2-0.1,0.3-0.3,0.3-0.4l0.8-7.6h-0.6L69.3,55.9z"/>
				<g>
					<defs>
						<path id="SVGID_16_" d="M48.2,18.9c-4.6,4.3-9.4,17.5-8.8,24.3c0.3,2.8,0.6,4.4,1.6,5.8c-1.2,0.2-2.2,0.7-1.9,2.2
							c0.7,2.8,10.7,5.8,11.3,3.6c0.4,0.2,0.8,0.4,1.2,0.6c10.9,5.6,12.2,3.8,15.4,3.3c2.4-0.4,10.9-6.8,14.8-9.9
							c2.1,3.4,9.8-3.9,10.7-9.5c0.6-4-3.2-3.5-5.8-2.6c-0.5-8.2-6.4-15-6.4-15c-6.1-3.9-13.1-6.1-20.3-6.2
							C54.7,15.5,50.3,16.8,48.2,18.9"/>
					</defs>
					<clipPath id="SVGID_17_">
						<use xlink:href="#SVGID_16_"  style="overflow:visible;"/>
					</clipPath>
					<g class="st13">
						
							<linearGradient id="SVGID_18_" gradientUnits="userSpaceOnUse" x1="-1049.5612" y1="-336.7117" x2="-1048.5612" y2="-336.7117" gradientTransform="matrix(1.3121 -16.3073 -16.3073 -1.3121 -4049.4463 -17498.2285)">
							<stop  offset="0" style="stop-color:#FEFEFE"/>
							<stop  offset="1.000000e-02" style="stop-color:#FEFEFE"/>
							<stop  offset="1" style="stop-color:#FFE5E0"/>
						</linearGradient>
						<polygon class="st14" points="35.2,60.6 39.2,11.1 96.8,15.8 92.9,65.3 						"/>
					</g>
				</g>
				<path class="st2" d="M41.5,48.6c-1-1.2-1.2-2.7-1.5-5.5c-0.6-6.5,4.1-19.6,8.6-23.8s18.7-5.3,31.5,2.8L80,22
					c0.1,0.1,5.7,6.7,6.2,14.6v0.7l0.7-0.2c2.3-0.7,3.9-0.8,4.7-0.1c0.5,0.6,0.7,1.4,0.4,2.1c-0.7,4.2-5.3,9.3-8,9.9
					c-0.6,0.2-1.2,0-1.6-0.6l-0.3-0.5l-0.5,0.4c-7.5,5.9-13,9.5-14.5,9.8c-0.5,0.1-1,0.2-1.4,0.3c-2.4,0.6-4.7,1.1-13.7-3.5
					l-1.2-0.6l-0.6-0.3L50,54.6c0,0.1-0.4,0.3-1.3,0.3c-3,0-8.5-2.3-8.9-3.9c-0.1-0.3-0.1-0.6,0.1-0.9c0.3-0.4,0.8-0.6,1.3-0.6
					l1-0.2L41.5,48.6z M38.6,51.2c0.6,2.5,7,4.8,10,4.8c1.8,0,2.3-0.6,2.5-1.2l-0.8,0.4l1.2,0.6c9.4,4.8,12,4.2,14.4,3.6
					c0.4-0.1,0.9-0.2,1.3-0.3c2.5-0.4,10.5-6.4,15.1-10l-0.8-0.2c0.6,0.9,1.7,1.4,2.8,1.1c3.5-0.7,8.3-6.5,9-10.9
					c0.3-1.1,0-2.3-0.8-3.1c-1.1-0.9-3-1-5.7-0.1l0.7,0.5c-0.5-8.3-6.3-15-6.5-15.3v-0.1h-0.1c-13.8-8.7-28.2-7.1-32.9-2.7
					s-9.6,17.9-9,24.7c0.3,3,0.6,4.7,1.7,6.1l0.4-0.9c-0.8,0-1.6,0.4-2.1,1.1C38.6,50,38.5,50.7,38.6,51.2"/>
				<path class="st2" d="M56.5,20.3c0,0,3.1,3,10.3,4.6s13,6.3,13.5,7.6c0,0-1.2-6.2-11.9-11.3c0,0,14.8,1.1,18.5,15.3l2.2-5.6
					c0,0,5.3,6.4,6.8,11.6c-2.3-7.3-3.6-15-7.8-21.6C83.5,13.4,74,7.2,65.4,5.9C55.2,4.3,46.7,9.2,41.1,17.5
					C37.5,23,34.5,29,32.4,35.2c-3.5,10.7-5.5,16.7-9.9,16c5,1.2,10.1-1.1,12.5-5.7c0,2.4-0.2,4.8-0.8,7.1c0,0,6-3,8.3-12.2
					S45,20.5,56.5,20.3"/>
				<g>
					<defs>
						<path id="SVGID_19_" d="M72.5,31.3c-3,0.5-4.8,4.6-4.1,9.2s3.7,8,6.6,7.6s4.8-4.6,4.1-9.2c-0.7-4.3-3.3-7.6-6.1-7.6
							C72.8,31.3,72.7,31.3,72.5,31.3"/>
					</defs>
					<clipPath id="SVGID_20_">
						<use xlink:href="#SVGID_19_"  style="overflow:visible;"/>
					</clipPath>
					<g class="st15">
						
							<linearGradient id="SVGID_21_" gradientUnits="userSpaceOnUse" x1="-1092.4844" y1="-252.7195" x2="-1091.4744" y2="-252.7195" gradientTransform="matrix(-10.6769 1.6262 1.6262 10.6769 -11172.4375 4513.605)">
							<stop  offset="0" style="stop-color:#FFFFFF"/>
							<stop  offset="1.000000e-02" style="stop-color:#FFFFFF"/>
							<stop  offset="1" style="stop-color:#C3C2C3"/>
						</linearGradient>
						<polygon class="st16" points="65.1,31.6 79.5,29.4 82.4,48.1 68,50.3 						"/>
					</g>
				</g>
				<path class="st2" d="M67.8,40.6c0.3,2.7,1.7,5.3,3.8,7.1c1.9,1.6,4.7,1.3,6.2-0.5c0.1-0.1,0.2-0.3,0.3-0.5
					c1.5-2.3,2-5.1,1.5-7.8c-0.3-2.8-1.7-5.3-3.8-7.1c-1-0.8-2.3-1.2-3.5-1C69.1,31.2,67.1,35.6,67.8,40.6 M72.6,31.8
					c1-0.1,1.9,0.2,2.7,0.8c1.9,1.6,3.1,3.9,3.3,6.4c0.5,2.4,0,4.9-1.3,7c-0.5,0.8-1.4,1.4-2.3,1.5c-1,0.1-1.9-0.2-2.7-0.8
					c-1.9-1.6-3-3.9-3.3-6.4C68.3,36.1,70,32.3,72.6,31.8"/>
				<path class="st2" d="M71.2,39.9c0.4,2.7,2,4.7,3.5,4.4s2.4-2.6,2-5.3s-2-4.7-3.5-4.4S70.8,37.2,71.2,39.9"/>
				<path class="st3" d="M73.1,38c0.3,2,1.3,3.4,2.2,3.3s1.5-1.8,1.2-3.8s-1.3-3.4-2.2-3.3S72.8,36,73.1,38"/>
				<path class="st3" d="M72.5,43.2c0.1,0.8,0.5,1.4,0.9,1.4s0.6-0.8,0.5-1.6s-0.5-1.4-0.9-1.4S72.4,42.4,72.5,43.2"/>
				<g>
					<defs>
						<path id="SVGID_22_" d="M50.8,31.8c-3,0.5-4.8,4.6-4.1,9.2s3.7,8,6.6,7.6s4.8-4.6,4.1-9.2c-0.7-4.4-3.3-7.6-6.1-7.6
							C51.2,31.7,51,31.7,50.8,31.8"/>
					</defs>
					<clipPath id="SVGID_23_">
						<use xlink:href="#SVGID_22_"  style="overflow:visible;"/>
					</clipPath>
					<g class="st17">
						
							<linearGradient id="SVGID_24_" gradientUnits="userSpaceOnUse" x1="-1092.4792" y1="-253.2322" x2="-1091.4692" y2="-253.2322" gradientTransform="matrix(-10.6676 1.6209 1.6209 10.6676 -11186.1738 4511.7495)">
							<stop  offset="0" style="stop-color:#FFFFFF"/>
							<stop  offset="1.000000e-02" style="stop-color:#FFFFFF"/>
							<stop  offset="1" style="stop-color:#C3C2C3"/>
						</linearGradient>
						<polygon class="st18" points="57.9,29.9 43.5,32.1 46.3,50.8 60.8,48.6 						"/>
					</g>
				</g>
				<path class="st2" d="M46.2,41.1c0.3,2.8,1.7,5.3,3.8,7.1c1.9,1.6,4.7,1.3,6.3-0.6c0.1-0.1,0.2-0.3,0.3-0.4
					c1.5-2.3,2-5.2,1.5-7.9c-0.8-4.9-4-8.5-7.3-8c-1.3,0.2-2.4,0.9-3.1,2C46.2,35.6,45.7,38.4,46.2,41.1 M51,32.4
					c2.7-0.4,5.3,2.8,6,7.1c0.5,2.4,0,4.9-1.3,7c-0.5,0.8-1.4,1.4-2.3,1.5c-1,0.1-1.9-0.2-2.7-0.8c-1.9-1.6-3.1-3.9-3.3-6.3
					c-0.5-2.4,0-4.9,1.3-7C49.1,33.1,50,32.5,51,32.4"/>
				<path class="st2" d="M49.6,40.4c0.4,2.7,2,4.7,3.5,4.4s2.4-2.6,2-5.3s-2-4.7-3.5-4.4S49.2,37.7,49.6,40.4"/>
				<path class="st3" d="M51.5,38.5c0.3,2,1.3,3.4,2.2,3.3s1.5-1.8,1.2-3.8s-1.3-3.4-2.2-3.3S51.2,36.5,51.5,38.5"/>
				<path class="st3" d="M50.8,43.7c0.1,0.8,0.5,1.5,0.9,1.4s0.6-0.8,0.5-1.6s-0.6-1.4-1-1.4S50.7,42.9,50.8,43.7"/>
				<path class="st2" d="M55.8,53.2c0.2-1.3,1.2-2.3,2.5-2.7C58.2,50.6,55.9,50.1,55.8,53.2"/>
				<path class="st2" d="M69.9,53.3c-0.6-1-1.9-2-3.1-1.8C66.8,51.5,68.9,50.4,69.9,53.3"/>
				<path class="st2" d="M68.7,52c0,0-4.5,7.3-11.8-0.7C56.9,51.3,63.9,61.9,68.7,52"/>
				<g class="st8">
					<g>
						<defs>
							<rect id="SVGID_25_" x="84.6" y="39.1" width="5" height="7.6"/>
						</defs>
						<clipPath id="SVGID_26_">
							<use xlink:href="#SVGID_25_"  style="overflow:visible;"/>
						</clipPath>
						<g class="st19">
							<path class="st2" d="M84.6,46.7c0,0,7-6.7,4.5-7.5S87.4,44.3,84.6,46.7"/>
						</g>
					</g>
				</g>
				<path class="st2" d="M64.3,48.9L64.3,48.9c-0.4-0.1-1.7-0.6-1.9-1.3c-0.1-0.3,0.1-0.8,0.5-1.3l-0.8-0.8c-0.7,0.6-1,1.5-0.8,2.4
					c0.4,1.4,2.5,2,2.7,2.1L64.3,48.9z"/>
				<g class="st8">
					<g>
						<defs>
							<rect id="SVGID_27_" x="42.2" y="49.9" width="3.9" height="2.7"/>
						</defs>
						<clipPath id="SVGID_28_">
							<use xlink:href="#SVGID_27_"  style="overflow:visible;"/>
						</clipPath>
						<g class="st20">
							<path class="st2" d="M46.1,52.6c0,0-5.2,0-3.6-2.7"/>
						</g>
					</g>
				</g>
				<g>
					<defs>
						<path id="SVGID_29_" d="M53.1,13.5c0.3,0.9,1.7,4.9,5.2,6.8c2,1.1,4.1,2,6.2,2.7c2.9,0.9,5.8,1.4,8.5,2.9
							c1.7,1,3.4,2.2,4.9,3.4c-1.1-0.9-1.9-2.2-3-3c-3-2.2-6.7-2.6-10.1-3.7c-3.3-0.9-6.3-2.6-8.8-4.8c-1.3-1.3-2.3-2.8-2.9-4.5
							L53.1,13.5"/>
					</defs>
					<clipPath id="SVGID_30_">
						<use xlink:href="#SVGID_29_"  style="overflow:visible;"/>
					</clipPath>
					<g class="st21">
						
							<linearGradient id="SVGID_31_" gradientUnits="userSpaceOnUse" x1="-993.9126" y1="-281.7299" x2="-992.9026" y2="-281.7299" gradientTransform="matrix(14.3997 12.2725 12.2725 -14.3997 17829.5352 8157.5005)">
							<stop  offset="0" style="stop-color:#FFFFFF"/>
							<stop  offset="1.000000e-02" style="stop-color:#FFFFFF"/>
							<stop  offset="1" style="stop-color:#231F20"/>
						</linearGradient>
						<polygon class="st22" points="45.2,22.6 63.5,1 85.8,20 67.5,41.6 						"/>
					</g>
				</g>
				<g>
					<defs>
						<path id="SVGID_32_" d="M69,19.2c9,0.7,17.2,8,17.8,13.5c0,0-0.2-9.9-11.6-13.2s-12.8-0.6-17.8-5.6C57.3,13.9,60,18.5,69,19.2
							"/>
					</defs>
					<clipPath id="SVGID_33_">
						<use xlink:href="#SVGID_32_"  style="overflow:visible;"/>
					</clipPath>
					<g class="st23">
						
							<linearGradient id="SVGID_34_" gradientUnits="userSpaceOnUse" x1="-1057.5684" y1="-276.3993" x2="-1056.5583" y2="-276.3993" gradientTransform="matrix(-25.9126 3.9374 3.9374 25.9126 -26226.4863 11346.9521)">
							<stop  offset="0" style="stop-color:#FFFFFF"/>
							<stop  offset="1.000000e-02" style="stop-color:#FFFFFF"/>
							<stop  offset="1" style="stop-color:#231F20"/>
						</linearGradient>
						<polygon class="st24" points="86.2,9.5 54.5,14.3 58,37.1 89.6,32.3 						"/>
					</g>
				</g>
				<g>
					<defs>
						<path id="SVGID_35_" d="M41.3,31.8c-0.6,5.5-2,10.8-4.2,15.8c3.8-5.1,4.6-9.8,6.3-18.7c0.6-3.5,2.1-6.8,4.5-9.5
							C44.6,22.3,41.9,25.3,41.3,31.8 M47.9,19.5c0.9-0.8,1.8-1.5,2.8-2.3C49.7,17.8,48.7,18.6,47.9,19.5"/>
					</defs>
					<clipPath id="SVGID_36_">
						<use xlink:href="#SVGID_35_"  style="overflow:visible;"/>
					</clipPath>
					<g class="st25">
						
							<linearGradient id="SVGID_37_" gradientUnits="userSpaceOnUse" x1="-1026.0266" y1="-266.5729" x2="-1025.0167" y2="-266.5729" gradientTransform="matrix(-4.8223 27.947 27.947 4.8223 2546.9785 29986.9316)">
							<stop  offset="0" style="stop-color:#FFFFFF"/>
							<stop  offset="1.000000e-02" style="stop-color:#FFFFFF"/>
							<stop  offset="1" style="stop-color:#231F20"/>
						</linearGradient>
						<polygon class="st26" points="37.5,14.9 32,46.8 50.3,49.9 55.8,18 						"/>
					</g>
				</g>
				<path class="st27" d="M38.3,107.3c0,0-30.1,13.9-28.8,15.6s-0.4-2.1,29-14.1"/>
				<path class="st27" d="M38.9,106l5.5,8.7c0,0-3.4-10.2-4.7-9"/>
				<path class="st2" d="M70.8,68.5c-2.1,4.5-7.9,10.9-8,10.9l0.6-0.2c-9.9-3-27.3,2.7-28.1,3l0.3,1.1c3.7-0.8,14.5,2.5,14.6,2.6
					s3,1,3,1l1-0.7l-3.6-1.4c-0.5-0.2-11.3-3.4-15.2-2.6l0.3,1.1c0.2,0,17.9-5.9,27.4-3l0.3,0.1l0.2-0.2c0.3-0.3,6.1-6.5,8.2-11.3
					L70.8,68.5z"/>
				<path class="st2" d="M40.8,80.9c3.5-4.4,5.2-7.1,4.9-7.9l-1.1,0.4c0,0,0-0.1,0-0.1c0,0.7-2.5,4.1-4.7,6.9L40.8,80.9z"/>
				<path class="st3" d="M56.9,61.7c0,0-3.8,4.5-2.5,7.7l7.7-4.2c0,0-3.5-0.3-4.2-3.5"/>
				<path class="st2" d="M56.5,61.3c-0.2,0.2-4.1,4.8-2.7,8.3l0.2,0.6l0.6-0.3l7.7-4.2l1.7-0.9l-1.9-0.2c-0.1,0-3.3-0.4-3.8-3.1
					l-1-0.1c0.5,2.3,2.4,4,4.7,4.4l-0.2-1.1l-7.7,4.2l0.8,0.3c-1.1-2.8,2.8-7.3,2.8-7.3L56.5,61.3z"/>
				<path class="st3" d="M63,65.2l4.5,6.1c0,0,2.9-6.1,1.6-9.9C67.6,63.3,65.4,64.7,63,65.2"/>
				<path class="st2" d="M62.6,65.5l4.5,6.1l0.6,0.8l0.4-0.9c0.1-0.2,3-6.3,1.6-10.3l-0.4-1.1l-0.6,1c-1.4,1.8-3.5,3.1-5.7,3.6
					l-0.8,0.2L62.6,65.5z M68.6,61.5C69.8,65.1,67,71,67,71l1-0.1l-4.5-6.1l-0.3,0.9c2.6-0.6,4.8-2,6.4-4.1L68.6,61.5z"/>
				<path class="st2" d="M51.7,79.5c5.4-3.8,10.1-12.8,10.3-13.2L61.5,66c0,0.1-4.8,9.3-10.1,13L51.7,79.5z"/>
				<path class="st2" d="M49,85.5c-0.1,0.1-6.5,8-2,20.4l0.5-0.2c-4.4-12.2,1.8-19.8,1.9-19.9L49,85.5z"/>
				<path class="st27" d="M12.5,126c0,0,21.4,20.1,28.5,48l1.9-5.4C42.9,168.6,34.9,143,12.5,126"/>
				<path class="st27" d="M57.3,103.9c1.2-0.2,2.7,9.1,2.7,10c-0.1,2.1-3.1,6.9-5.2,7.4c-5.3,1.2-2.5-6.6-0.3-8.4s0.3-5.1-2.6-6.4
					S57.2,103.9,57.3,103.9"/>
				<path class="st27" d="M36.8,107.1l-25.3-1c0,0-3.2,0.7-0.6,1.3s23,0.6,23,0.6"/>
				<path class="st2" d="M45.2,91.1c-0.2,0.6-0.7,0.9-1.1,0.8c-0.4-0.3-0.6-0.8-0.4-1.2c0.2-0.5,0.7-0.9,1.1-0.8
					C45.3,90.1,45.4,90.7,45.2,91.1"/>
				<path class="st2" d="M44.2,98.2c-0.2,0.5-0.7,0.9-1.1,0.7c-0.4-0.3-0.6-0.8-0.4-1.2c0.2-0.6,0.7-0.9,1.1-0.7
					S44.4,97.6,44.2,98.2"/>
				<path class="st2" d="M51.9,75.8c-0.2,0.6-0.7,0.9-1.1,0.8c-0.4-0.3-0.6-0.8-0.4-1.2c0.2-0.6,0.7-0.9,1.1-0.7
					S52.1,75.2,51.9,75.8"/>
				<polyline class="st2" points="41,173.9 33.6,182.6 38.7,180.7 				"/>
				<path class="st28" d="M62.1,65.2c0,0-8,13.1,1.7,22.8s6.3,9.7,6.3,9.7l8,2.3l-1.2-8c0,0-22.1-10.2-13.9-26.8"/>
				<path class="st2" d="M61.7,65c-0.1,0.1-8,13.5,1.8,23.3c7,7,6.8,8.6,6.7,8.9c0,0.1-0.1,0.1-0.2,0.1l-0.1,0.8l8,2.3l0.6,0.2
					l-0.1-0.7l-1.1-8v-0.2l-0.2-0.1c-0.1-0.1-11.4-5.4-14.6-14.3c-1.4-3.9-1-8.2,0.9-11.9L62.6,65c-2.1,3.9-2.4,8.4-1,12.5
					c3.4,9.3,14.6,14.6,15.1,14.8L76.5,92l1.1,8l0.5-0.5l-8-2.3L70,98.1c0.4,0,0.8-0.2,1-0.6c0.2-0.5,0.8-2.1-6.9-9.8
					c-9.4-9.4-1.5-22.6-1.4-22.7H61.7z"/>
			</g>
		</g>
		<circle class="st29" cx="58.8" cy="58.8" r="58.8"/>

	</g>
</g>
</svg>
